<svg t="1739341782001" class="icon" viewBox="0 0 1024 1024" version="1.1" xmlns="http://www.w3.org/2000/svg" p-id="4363" width="64" height="64"><path d="M70.4 505.6a441.6 441.6 0 1 1 883.2 0v12.8a441.6 441.6 0 1 1-883.2 0v-12.8z m818.368 38.4h-192a631.232 631.232 0 0 1-125.184 347.328A377.728 377.728 0 0 0 888.768 544z m-192-64h192A377.792 377.792 0 0 0 571.52 132.672 631.232 631.232 0 0 1 696.768 480z m-64.064 0A567.36 567.36 0 0 0 512 160.192 567.36 567.36 0 0 0 391.296 480h241.408z m-305.472 64h-192a377.728 377.728 0 0 0 317.184 347.328A631.296 631.296 0 0 1 327.232 544z m0-64A631.296 631.296 0 0 1 452.48 132.672 377.728 377.728 0 0 0 135.232 480h192z m305.472 64H391.296A567.36 567.36 0 0 0 512 863.808 567.36 567.36 0 0 0 632.704 544z" fill="#000000" fill-opacity=".9" p-id="4364"></path></svg>